<svg width="114" height="29" viewBox="0 0 114 29" fill="none" xmlns="http://www.w3.org/2000/svg">
<rect y="13.7842" width="32" height="1.54334" rx="0.771672" fill="#E3B873"/>
<rect x="82" y="13.7842" width="32" height="1.54334" rx="0.771672" fill="#E3B873"/>
<path d="M62.4255 9.34436L57.58 7.89061C57.2163 7.78209 56.8424 7.74388 56.472 7.75741V7.74494H50.5827L40.139 4.27441L40.1706 18.9493L43.1686 20.4479L44.9436 16.1084L47.5367 17.1459L48.2091 15.4655L49.1828 16.4393L48.2743 17.3481C47.9586 17.6638 47.7776 18.1005 47.7776 18.5474C47.7776 19.4617 48.5068 20.2051 49.4137 20.2373C49.4453 21.1235 50.1577 21.8359 51.0439 21.8674C51.0754 22.7537 51.7879 23.4661 52.6741 23.4976C52.7067 24.4045 53.4496 25.1337 54.3642 25.1337C54.8108 25.1337 55.2478 24.9527 55.5633 24.637L56.472 23.7285L56.8371 24.0936C57.1529 24.4093 57.5896 24.5903 58.0364 24.5903C58.951 24.5903 59.6942 23.8611 59.7263 22.9542C60.6125 22.9227 61.3249 22.2103 61.3565 21.324C62.2427 21.2925 62.9551 20.5801 62.9867 19.6939C63.8936 19.6612 64.623 18.9183 64.623 18.004C64.623 17.9268 64.6105 17.8506 64.6002 17.7739L65.38 16.9941L66.0101 18.255L69.4233 16.5481L71.486 20.4861L73.8607 18.9037V4.85894L62.4255 9.34436ZM42.6056 18.9515L41.2563 18.2767L41.229 5.78176L47.1836 7.76086L42.6056 18.9515ZM46.9315 15.733L45.3546 15.1026L48.2173 8.1042L49.7751 8.62213L46.9315 15.733ZM48.8644 18.5474C48.8644 18.3868 48.9289 18.23 49.0425 18.1162L49.9979 17.161C50.1115 17.0474 50.2686 16.9827 50.4288 16.9827C50.7647 16.9827 51.038 17.2563 51.038 17.5919C51.038 17.7522 50.9733 17.9092 50.8597 18.0228L49.9045 18.9783C49.791 19.0918 49.6339 19.1563 49.4736 19.1563C49.1377 19.1563 48.8644 18.883 48.8644 18.5474ZM50.4946 20.1776C50.4946 20.017 50.5591 19.8602 50.6727 19.7464L51.6281 18.7912C51.7417 18.6776 51.8988 18.6129 52.059 18.6129C52.3949 18.6129 52.6682 18.8865 52.6682 19.2221C52.6682 19.3824 52.6035 19.5394 52.4899 19.653L51.5347 20.6084C51.4212 20.722 51.2641 20.7865 51.1038 20.7865C50.7679 20.7865 50.4946 20.5132 50.4946 20.1776ZM52.1248 21.8077C52.1248 21.6472 52.1893 21.4904 52.3029 21.3766L53.2583 20.4214C53.3719 20.3078 53.529 20.2431 53.6892 20.2431C54.0251 20.2431 54.2984 20.5166 54.2984 20.8523C54.2984 21.0125 54.2337 21.1696 54.1201 21.2832L53.1649 22.2386C53.0514 22.3522 52.8943 22.4167 52.734 22.4167C52.3981 22.4167 52.1248 22.1434 52.1248 21.8077ZM55.7503 22.9134L54.7951 23.8688C54.6816 23.9824 54.5245 24.0469 54.3642 24.0469C54.0283 24.0469 53.755 23.7736 53.755 23.4379C53.755 23.2774 53.8195 23.1206 53.9331 23.0068L54.8885 22.0516C55.0021 21.938 55.1592 21.8733 55.3194 21.8733C55.6553 21.8733 55.9286 22.1468 55.9286 22.4825C55.9286 22.6427 55.8639 22.7998 55.7503 22.9134ZM62.927 18.6129C62.7667 18.6129 62.6096 18.5484 62.4961 18.4349L57.943 13.8815L57.1746 14.6499L61.7277 19.203C61.8412 19.3168 61.906 19.4736 61.906 19.6342C61.906 19.9698 61.6327 20.2431 61.2968 20.2431C61.1365 20.2431 60.9795 20.1786 60.8659 20.0651L56.3128 15.5117L55.5444 16.2801L60.0975 20.8332C60.2111 20.947 60.2758 21.1038 60.2758 21.2643C60.2758 21.6 60.0025 21.8733 59.6666 21.8733C59.5063 21.8733 59.3493 21.8088 59.2357 21.6952L54.6826 17.1419L53.9142 17.9103L58.4673 22.4634C58.5809 22.5772 58.6456 22.734 58.6456 22.8945C58.6456 23.2302 58.3723 23.5035 58.0364 23.5035C57.8761 23.5035 57.7191 23.439 57.6055 23.3254L56.9926 22.7123C57.0035 22.6364 57.0154 22.5602 57.0154 22.4825C57.0154 21.5679 56.286 20.8247 55.3791 20.7926C55.3475 19.9064 54.6351 19.194 53.7489 19.1624C53.7173 18.2762 53.0049 17.5638 52.1187 17.5322C52.0861 16.6253 51.3434 15.8959 50.4288 15.8959C50.3516 15.8959 50.2755 15.9084 50.1991 15.9187L48.6477 14.3673L50.8624 8.83174H54.0734L52.0781 10.8273C51.7573 11.1473 51.5814 11.5734 51.5814 12.0266C51.5814 12.9616 52.3421 13.7223 53.2774 13.7223C53.724 13.7223 54.161 13.5414 54.4765 13.2256L55.9161 11.7857C56.2107 11.4922 56.7294 11.4808 57.0361 11.7618L58.3065 12.9263C58.7287 13.3132 59.1978 13.635 59.6998 13.8871L63.3579 17.5728C63.4714 17.6866 63.5362 17.8434 63.5362 18.004C63.5362 18.3396 63.2629 18.6129 62.927 18.6129ZM64.0796 16.7577L61.846 14.5072C62.0456 14.526 62.2467 14.5374 62.4494 14.5374V13.4506C61.1843 13.4506 59.9736 12.9797 59.0412 12.1248L57.7705 10.9608C57.0534 10.3022 55.8368 10.3285 55.1483 11.0178L53.7089 12.4575C53.5948 12.5705 53.4377 12.6355 53.2774 12.6355C52.9415 12.6355 52.6682 12.3622 52.6682 12.0266C52.6682 11.8634 52.7311 11.7108 52.8463 11.5954L54.9177 9.52425C55.5264 8.91558 56.4404 8.68395 57.2675 8.93177L62.0678 10.3717L64.8668 15.9705L64.0796 16.7577ZM66.4959 16.797L63.2013 10.2072L65.6076 9.26317L68.9189 15.5852L66.4959 16.797ZM72.7739 18.3224L71.888 18.913L66.6254 8.86437L72.7739 6.45278V18.3224Z" fill="#E3B873"/>
<circle cx="59.6661" cy="1.48559" r="0.485591" fill="#E3B873"/>
<circle cx="47.4093" cy="24.4148" r="0.485591" fill="#E3B873"/>
<circle cx="49.4674" cy="26.1033" r="0.485591" fill="#E3B873"/>
<circle cx="51.816" cy="27.342" r="0.485591" fill="#E3B873"/>
<circle cx="54.3649" cy="28.1345" r="0.485591" fill="#E3B873"/>
<circle cx="62.2135" cy="2.25854" r="0.485591" fill="#E3B873"/>
<circle cx="64.5626" cy="3.51294" r="0.485591" fill="#E3B873"/>
<path d="M66.8299 2.81104V5.61273H63.9965" stroke="#E3B873" stroke-linecap="round" stroke-linejoin="round"/>
<path d="M45.0098 24.0981L45.0098 21.8313L47.2738 21.8313" stroke="#E3B873" stroke-linecap="round" stroke-linejoin="round"/>
<path d="M47.8002 4.79405C49.3353 3.45823 50.3118 2.84367 52.1513 2.12542C54.1027 1.36348 55.423 1.18456 57.5435 1.18457" stroke="#E3B873" stroke-linecap="round"/>
<path d="M68.404 22.2825C67.2627 24.0627 65.137 25.8009 63.4083 26.7554C61.5744 27.7679 59.6096 28.3384 56.9925 28.4748" stroke="#E3B873" stroke-linecap="round"/>
</svg>
