<svg width="114" height="28" viewBox="0 0 114 28" fill="none" xmlns="http://www.w3.org/2000/svg">
<rect y="12.9998" width="32" height="1.54334" rx="0.771672" fill="#E3B873"/>
<rect x="82" y="12.9998" width="32" height="1.54334" rx="0.771672" fill="#E3B873"/>
<path d="M67.405 21.1434C66.8234 20.7342 66.1523 20.5144 65.4744 20.4785C62.9194 18.8054 61.2457 17.5495 60.2686 16.5724L57.2669 13.5707L59.0884 11.5318C59.4336 11.7267 59.8044 11.8551 60.1753 11.908C60.4551 11.9546 60.6417 11.9546 60.8283 11.9546C61.2014 11.9546 61.2947 11.9546 61.6679 12.2811C61.4813 12.4211 61.388 12.6543 61.388 12.8875C61.388 13.1207 61.4813 13.4006 61.6679 13.5871L63.3004 15.2197C63.5336 15.4995 63.9067 15.6394 64.2799 15.6394C64.6531 15.6394 65.0262 15.4995 65.2594 15.173L68.5711 11.8613C68.851 11.6281 68.9909 11.255 68.9909 10.8818C68.9909 10.5087 68.851 10.1822 68.5711 9.90232L66.9386 8.26979C66.752 8.08324 66.5188 7.98993 66.2855 7.98993C66.0523 7.98993 65.8191 8.12986 65.6325 8.26979C65.2593 7.94331 65.2594 7.85 65.2594 7.47684C65.2594 7.29028 65.2594 7.05705 65.166 6.77719C65.0727 6.12416 64.7463 5.4712 64.2332 4.9581L62.554 3.27894C61.5745 2.29944 61.1081 1.83302 59.8487 1.2733C57.1434 0.013935 54.3915 0.24717 50.3801 2.06626C50.1469 2.15956 50.0536 2.34612 50.1003 2.57935C50.1469 2.81258 50.3335 2.95251 50.5667 2.95251H51.173C53.2253 2.95251 54.2981 2.95251 56.1639 4.81823C56.9808 5.63518 57.0044 6.88782 56.2724 7.80944C56.1738 7.82431 56.0987 7.86859 56.0239 7.94331L53.952 10.2559L52.3858 8.68963C50.6643 6.96817 49.4535 5.33946 48.5216 3.5259C48.4726 2.60821 48.1044 1.74961 47.4416 1.0868C46.6487 0.293904 45.5293 -0.0792603 44.4098 0.0140445C44.2699 0.0606695 44.13 0.153974 44.0833 0.247279C43.99 0.387209 43.99 0.573763 44.0833 0.713693L45.3893 3.04587C45.1095 3.65222 44.4564 4.02538 43.8035 3.97876L42.4508 1.73983C42.4042 1.5999 42.2176 1.50659 42.0776 1.50659C41.9377 1.45997 41.7978 1.55322 41.7045 1.69315C40.585 3.3723 41.0048 5.61118 42.684 6.77724C43.2625 7.19047 43.9143 7.42026 44.5743 7.46738C44.5817 7.4705 44.5887 7.47432 44.5963 7.47689C46.4154 8.40977 48.0479 9.62246 49.7737 11.3483L51.4796 13.0154L41.5646 24.082C41.1914 24.4551 41.0049 24.9682 41.0049 25.4813C41.0049 25.9944 41.1914 26.4608 41.5646 26.8339L42.2176 27.487C42.5908 27.8134 43.0572 28 43.5236 28C43.99 28 44.5031 27.8135 44.8763 27.4403L54.78 16.3546L57.6565 19.2311C58.6351 20.2097 59.893 21.9332 61.5699 24.4481C61.63 25.3458 61.9973 26.1839 62.6474 26.8339C63.347 27.5336 64.2799 27.9067 65.2594 27.9067C65.3993 27.9067 65.5393 27.9067 65.6326 27.9067C65.7725 27.9067 65.9124 27.8134 66.0057 27.6735C66.099 27.5336 66.099 27.347 66.0057 27.2071L64.6531 24.9216C64.9795 24.3153 65.5859 23.9421 66.2856 23.9887L67.5916 26.2276C67.6382 26.3675 67.8248 26.4608 67.9647 26.4608C68.1513 26.4142 68.2912 26.3675 68.3845 26.2276C69.5039 24.5484 69.0375 22.3095 67.405 21.1434ZM56.7703 4.07201C55.2777 2.62608 54.1583 2.15962 52.8989 2.01969C55.5576 1.18011 57.5166 1.22673 59.4756 2.11299C60.595 2.57941 60.9682 2.95257 61.9477 3.93208L63.6269 5.61123C64 5.9844 64.2332 6.45081 64.2799 6.91723C64.3265 7.15046 64.3265 7.33702 64.3265 7.47695C64.3265 7.99004 64.3731 8.36315 64.9329 8.92287C65.1194 9.10942 65.3993 9.20273 65.6325 9.20273C65.9124 9.20273 66.1456 9.10942 66.2855 8.92287L67.9181 10.5554C68.0114 10.6487 68.058 10.742 68.058 10.8819C68.058 11.0218 68.0114 11.1151 67.9181 11.2084L64.6064 14.5201C64.4198 14.7066 64.14 14.7066 63.9534 14.5201L62.3208 12.8875C62.5074 12.7476 62.6007 12.5144 62.5541 12.2345C62.5541 12.0013 62.4608 11.7214 62.2742 11.5349C61.7145 10.9751 61.3413 10.9285 60.8283 10.9285C60.6884 10.9285 60.5018 10.9285 60.2686 10.8819C59.7555 10.8353 59.3357 10.602 58.9626 10.2289L56.9569 8.22322C57.983 6.96391 57.8898 5.19145 56.7703 4.07201ZM42.1243 2.95257L43.1038 4.63173C43.1971 4.77166 43.3371 4.86496 43.477 4.86496H43.7102C44.783 4.91159 45.7625 4.35187 46.229 3.41904L46.3223 3.1858C46.4156 3.04587 46.4156 2.90594 46.3223 2.76601L45.2961 0.993553C45.8558 1.08686 46.3689 1.36672 46.7887 1.78651C47.2696 2.30747 47.5775 2.96634 47.5957 3.67408C47.5867 3.70999 47.5816 3.74864 47.5816 3.7922C47.5816 4.00822 47.5555 4.21893 47.5072 4.42205C47.3313 5.09743 46.9094 5.68628 46.3222 6.07776C45.3893 6.6841 44.13 6.6841 43.1971 6.03113C42.2176 5.33137 41.7978 4.07201 42.1243 2.95257ZM50.4268 10.6953C49.0275 9.24941 47.6282 8.12997 46.1356 7.24371C46.3688 7.15041 46.6487 7.01048 46.8819 6.87055C47.5815 6.40413 48.0479 5.79773 48.3278 5.05146C49.214 6.54406 50.3334 7.94336 51.7327 9.34266L53.3348 10.9447L52.0785 12.347L50.4268 10.6953ZM44.2233 26.7406C43.8501 27.1138 43.2438 27.1604 42.8706 26.7873L42.2176 26.1809C42.031 25.9944 41.9377 25.7611 41.9377 25.5279C41.9377 25.248 42.031 25.0148 42.2642 24.7816L42.5284 24.4861L43.1971 25.1548C43.2904 25.2481 43.3836 25.2947 43.5236 25.2947C43.6635 25.2947 43.7568 25.2481 43.85 25.1548C44.0366 24.9682 44.0366 24.6884 43.85 24.5018L43.1447 23.7964L43.7611 23.1068L44.5031 23.8487C44.5964 23.942 44.6896 23.9887 44.8296 23.9887C44.9695 23.9887 45.0628 23.942 45.156 23.8487C45.3426 23.6622 45.3426 23.3823 45.156 23.1957L44.3776 22.4172L56.3751 8.99415L58.3341 10.9532L56.4093 13.1067C56.3543 13.13 56.3057 13.1656 56.2572 13.2141L54.3915 15.313C54.3382 15.3663 54.3007 15.4273 54.2779 15.4914L44.2233 26.7406ZM55.4182 15.6401L56.6947 14.2113L59.7088 17.2254C60.5484 18.1116 61.9943 19.231 64.0932 20.6303C63.8134 20.7236 63.5335 20.8636 63.2537 21.0501C62.675 21.4118 62.2651 21.914 61.9795 22.4691C61.9753 22.477 61.9714 22.4851 61.9673 22.4931C61.9503 22.5265 61.9338 22.5601 61.9178 22.5938C61.8948 22.6417 61.8729 22.69 61.852 22.7389C61.8376 22.772 61.8234 22.805 61.8099 22.8383C61.808 22.8431 61.8061 22.848 61.8042 22.8528C61.7895 22.8893 61.7749 22.9258 61.7611 22.9625C61.4962 22.5739 61.2413 22.2072 60.9961 21.8618L61.6212 21.2367C61.8077 21.0502 61.8077 20.7703 61.6212 20.5837C61.4346 20.3972 61.1548 20.3972 60.9682 20.5837L60.4482 21.1037C60.2543 20.8407 60.0671 20.5926 59.8865 20.3593L60.3152 19.9307C60.5017 19.7441 60.5017 19.4643 60.3152 19.2777C60.1286 19.0911 59.8488 19.0911 59.6622 19.2777L59.3061 19.6337C58.9633 19.2206 58.6471 18.8689 58.3562 18.578L55.4182 15.6401ZM67.918 24.9682L66.9385 23.289C66.8452 23.1491 66.7053 23.0558 66.5653 23.0558H66.3321C65.2593 22.9625 64.2798 23.5689 63.8134 24.5017L63.7201 24.7349C63.6268 24.8749 63.6268 25.0148 63.7201 25.1547L64.7462 26.9272C64.1865 26.8339 63.6734 26.554 63.2536 26.1342C62.7818 25.6231 62.4769 24.9793 62.4482 24.2869C62.4562 24.2528 62.4606 24.2162 62.4606 24.1752C62.4606 23.5843 62.6482 23.0311 62.9752 22.5625C63.176 22.283 63.4273 22.0383 63.72 21.8431C64.1864 21.5166 64.6995 21.3767 65.2592 21.3767C65.819 21.3767 66.3787 21.5632 66.8451 21.8898C67.8248 22.5894 68.2446 23.8487 67.918 24.9682Z" fill="#E3B873"/>
</svg>
